<svg width="320" height="81" viewBox="0 0 320 81" fill="none" xmlns="http://www.w3.org/2000/svg">
<g clip-path="url(#clip0_253_142)">
<path d="M160 0H89.6972C84.3396 0 80.0002 4.99966 80.0002 11.1724V69.8276C80.0002 76.0003 75.6608 81 70.3032 81H80.0002H150.303C155.661 81 160 76.0003 160 69.8276V11.1724C160 4.99966 164.34 0 169.697 0H160Z" fill="#417CA5"/>
<path d="M240 0H169.697C164.34 0 160 4.99966 160 11.1724V69.8276C160 76.0003 155.661 81 150.303 81H160H230.303C235.661 81 240 76.0003 240 69.8276V11.1724C240 4.99966 244.34 0 249.697 0H240Z" fill="#5E99C1"/>
<path d="M320 0H249.697C244.34 0 240 4.99966 240 11.1724V69.8276C240 76.0003 235.661 81 230.303 81H240H310.303C315.661 81 320 76.0003 320 69.8276V11.1724C320 4.99966 324.34 0 329.697 0H320Z" fill="#7CBAE4"/>
<path d="M80.0002 0H9.69716C4.33959 0 0.000191689 4.99966 0.000191689 11.1724V69.8276C0.000191689 76.0003 -4.3392 81 -9.69678 81H0.000191689H70.3032C75.6608 81 80.0002 76.0003 80.0002 69.8276V11.1724C80.0002 4.99966 84.3396 0 89.6972 0H80.0002Z" fill="#276691"/>
</g>
<defs>
<clipPath id="clip0_253_142">
<rect width="320" height="81" rx="20" fill="white"/>
</clipPath>
</defs>
</svg>
